<?xml version="1.0" encoding="UTF-8" standalone="no"?>
<!DOCTYPE svg PUBLIC "-//W3C//DTD SVG 1.1//EN"
 "http://www.w3.org/Graphics/SVG/1.1/DTD/svg11.dtd">
<!-- Generated by graphviz version 2.43.0 (0)
 -->
<!-- Title: G Pages: 1 -->
<svg width="944pt" height="834pt"
 viewBox="0.00 0.00 944.23 833.67" xmlns="http://www.w3.org/2000/svg" xmlns:xlink="http://www.w3.org/1999/xlink">
<g id="graph0" class="graph" transform="scale(1 1) rotate(0) translate(4 829.67)">
<title>G</title><style>.edge>path:hover{stroke-width:8}</style>
<polygon fill="white" stroke="transparent" points="-4,4 -4,-829.67 940.23,-829.67 940.23,4 -4,4"/>
<!-- classic_ml -->
<g id="node1" class="node">
<title>classic_ml</title><style>.edge>path:hover{stroke-width:8}</style>
<ellipse fill="#b34c4c" stroke="black" cx="207.2" cy="-18" rx="40.06" ry="18"/>
<text text-anchor="middle" x="207.2" y="-15.5" font-family="Helvetica,sans-Serif" font-size="10.00" fill="#ffffff">classic_ml</text>
</g>
<!-- classic_ml_classifier -->
<g id="node2" class="node">
<title>classic_ml_classifier</title><style>.edge>path:hover{stroke-width:8}</style>
<ellipse fill="#913030" stroke="black" cx="324.2" cy="-171.64" rx="50.41" ry="21.43"/>
<text text-anchor="middle" x="324.2" y="-174.64" font-family="Helvetica,sans-Serif" font-size="10.00" fill="#ffffff">classic_ml.</text>
<text text-anchor="middle" x="324.2" y="-163.64" font-family="Helvetica,sans-Serif" font-size="10.00" fill="#ffffff">classifier</text>
</g>
<!-- classic_ml_facade -->
<g id="node10" class="node">
<title>classic_ml_facade</title><style>.edge>path:hover{stroke-width:8}</style>
<ellipse fill="#a83838" stroke="black" cx="207.2" cy="-93.21" rx="50.41" ry="21.43"/>
<text text-anchor="middle" x="207.2" y="-96.21" font-family="Helvetica,sans-Serif" font-size="10.00" fill="#ffffff">classic_ml.</text>
<text text-anchor="middle" x="207.2" y="-85.21" font-family="Helvetica,sans-Serif" font-size="10.00" fill="#ffffff">facade</text>
</g>
<!-- classic_ml_classifier&#45;&gt;classic_ml_facade -->
<g id="edge1" class="edge">
<title>classic_ml_classifier&#45;&gt;classic_ml_facade</title><style>.edge>path:hover{stroke-width:8}</style>
<path fill="none" stroke="black" d="M297.95,-153.49C281.5,-142.75 260.12,-128.78 242.24,-117.1"/>
<polygon fill="#913030" stroke="black" points="244.07,-114.11 233.78,-111.57 240.24,-119.97 244.07,-114.11"/>
</g>
<!-- classic_ml_classifiers -->
<g id="node3" class="node">
<title>classic_ml_classifiers</title><style>.edge>path:hover{stroke-width:8}</style>
<ellipse fill="#ac2b2b" stroke="black" cx="565.2" cy="-328.49" rx="50.41" ry="21.43"/>
<text text-anchor="middle" x="565.2" y="-331.49" font-family="Helvetica,sans-Serif" font-size="10.00" fill="#ffffff">classic_ml.</text>
<text text-anchor="middle" x="565.2" y="-320.49" font-family="Helvetica,sans-Serif" font-size="10.00" fill="#ffffff">classifiers</text>
</g>
<!-- classic_ml_classifiers&#45;&gt;classic_ml_classifier -->
<g id="edge2" class="edge">
<title>classic_ml_classifiers&#45;&gt;classic_ml_classifier</title><style>.edge>path:hover{stroke-width:8}</style>
<path fill="none" stroke="black" d="M570.25,-307.06C573.1,-290.88 574.47,-268.23 565.2,-251.07"/>
</g>
<!-- classic_ml_config -->
<g id="node9" class="node">
<title>classic_ml_config</title><style>.edge>path:hover{stroke-width:8}</style>
<ellipse fill="#d31717" stroke="black" cx="246.2" cy="-250.07" rx="50.41" ry="21.43"/>
<text text-anchor="middle" x="246.2" y="-253.07" font-family="Helvetica,sans-Serif" font-size="10.00" fill="#ffffff">classic_ml.</text>
<text text-anchor="middle" x="246.2" y="-242.07" font-family="Helvetica,sans-Serif" font-size="10.00" fill="#ffffff">config</text>
</g>
<!-- classic_ml_classifiers&#45;&gt;classic_ml_config -->
<g id="edge3" class="edge">
<title>classic_ml_classifiers&#45;&gt;classic_ml_config</title><style>.edge>path:hover{stroke-width:8}</style>
<path fill="none" stroke="black" d="M522.51,-317.26C464.7,-303.41 361.56,-278.7 298.96,-263.71"/>
<polygon fill="#ac2b2b" stroke="black" points="299.44,-260.22 288.9,-261.29 297.81,-267.03 299.44,-260.22"/>
</g>
<!-- classic_ml_classifiers_base -->
<g id="node4" class="node">
<title>classic_ml_classifiers_base</title><style>.edge>path:hover{stroke-width:8}</style>
<ellipse fill="#e90c0c" stroke="black" cx="599.2" cy="-508.68" rx="50.41" ry="28.98"/>
<text text-anchor="middle" x="599.2" y="-517.18" font-family="Helvetica,sans-Serif" font-size="10.00" fill="#ffffff">classic_ml.</text>
<text text-anchor="middle" x="599.2" y="-506.18" font-family="Helvetica,sans-Serif" font-size="10.00" fill="#ffffff">classifiers.</text>
<text text-anchor="middle" x="599.2" y="-495.18" font-family="Helvetica,sans-Serif" font-size="10.00" fill="#ffffff">base</text>
</g>
<!-- classic_ml_classifiers_base&#45;&gt;classic_ml_classifier -->
<g id="edge4" class="edge">
<title>classic_ml_classifiers_base&#45;&gt;classic_ml_classifier</title><style>.edge>path:hover{stroke-width:8}</style>
<path fill="none" stroke="black" d="M604.2,-413.7C605.3,-372.47 674.83,-355.96 643.2,-329.49"/>
<path fill="none" stroke="black" d="M643.2,-327.49C633.75,-319.58 632.89,-316.03 624.2,-307.28 598.68,-281.58 582.42,-282.93 565.2,-251.07"/>
</g>
<!-- classic_ml_classifiers_base&#45;&gt;classic_ml_classifiers -->
<g id="edge5" class="edge">
<title>classic_ml_classifiers_base&#45;&gt;classic_ml_classifiers</title><style>.edge>path:hover{stroke-width:8}</style>
<path fill="none" stroke="black" d="M601.14,-479.52C602.29,-461.32 603.64,-437.12 604.2,-415.7"/>
<path fill="none" stroke="black" d="M604.2,-413.7C604.74,-393.64 595.52,-373.16 585.91,-357.43"/>
<polygon fill="#e90c0c" stroke="black" points="588.66,-355.23 580.28,-348.75 582.79,-359.04 588.66,-355.23"/>
</g>
<!-- classic_ml_classifiers_logistic_regression -->
<g id="node5" class="node">
<title>classic_ml_classifiers_logistic_regression</title><style>.edge>path:hover{stroke-width:8}</style>
<ellipse fill="#b03a3a" stroke="black" cx="708.2" cy="-414.7" rx="76.24" ry="28.98"/>
<text text-anchor="middle" x="708.2" y="-423.2" font-family="Helvetica,sans-Serif" font-size="10.00" fill="#ffffff">classic_ml.</text>
<text text-anchor="middle" x="708.2" y="-412.2" font-family="Helvetica,sans-Serif" font-size="10.00" fill="#ffffff">classifiers.</text>
<text text-anchor="middle" x="708.2" y="-401.2" font-family="Helvetica,sans-Serif" font-size="10.00" fill="#ffffff">logistic_regression</text>
</g>
<!-- classic_ml_classifiers_base&#45;&gt;classic_ml_classifiers_logistic_regression -->
<g id="edge6" class="edge">
<title>classic_ml_classifiers_base&#45;&gt;classic_ml_classifiers_logistic_regression</title><style>.edge>path:hover{stroke-width:8}</style>
<path fill="none" stroke="black" d="M626.99,-484.23C640.08,-473.18 655.91,-459.83 670.1,-447.86"/>
<polygon fill="#e90c0c" stroke="black" points="672.4,-450.49 677.78,-441.37 667.88,-445.14 672.4,-450.49"/>
</g>
<!-- classic_ml_classifiers_naive_bayes -->
<g id="node6" class="node">
<title>classic_ml_classifiers_naive_bayes</title><style>.edge>path:hover{stroke-width:8}</style>
<ellipse fill="#b83d3d" stroke="black" cx="521.2" cy="-414.7" rx="55.31" ry="28.98"/>
<text text-anchor="middle" x="521.2" y="-423.2" font-family="Helvetica,sans-Serif" font-size="10.00" fill="#ffffff">classic_ml.</text>
<text text-anchor="middle" x="521.2" y="-412.2" font-family="Helvetica,sans-Serif" font-size="10.00" fill="#ffffff">classifiers.</text>
<text text-anchor="middle" x="521.2" y="-401.2" font-family="Helvetica,sans-Serif" font-size="10.00" fill="#ffffff">naive_bayes</text>
</g>
<!-- classic_ml_classifiers_base&#45;&gt;classic_ml_classifiers_naive_bayes -->
<g id="edge7" class="edge">
<title>classic_ml_classifiers_base&#45;&gt;classic_ml_classifiers_naive_bayes</title><style>.edge>path:hover{stroke-width:8}</style>
<path fill="none" stroke="black" d="M577.48,-482.06C568.84,-471.88 558.8,-460.03 549.6,-449.18"/>
<polygon fill="#e90c0c" stroke="black" points="552.22,-446.86 543.09,-441.5 546.88,-451.39 552.22,-446.86"/>
</g>
<!-- classic_ml_classifiers_svm -->
<g id="node8" class="node">
<title>classic_ml_classifiers_svm</title><style>.edge>path:hover{stroke-width:8}</style>
<ellipse fill="#b03a3a" stroke="black" cx="853.2" cy="-414.7" rx="50.41" ry="28.98"/>
<text text-anchor="middle" x="853.2" y="-423.2" font-family="Helvetica,sans-Serif" font-size="10.00" fill="#ffffff">classic_ml.</text>
<text text-anchor="middle" x="853.2" y="-412.2" font-family="Helvetica,sans-Serif" font-size="10.00" fill="#ffffff">classifiers.</text>
<text text-anchor="middle" x="853.2" y="-401.2" font-family="Helvetica,sans-Serif" font-size="10.00" fill="#ffffff">svm</text>
</g>
<!-- classic_ml_classifiers_base&#45;&gt;classic_ml_classifiers_svm -->
<g id="edge8" class="edge">
<title>classic_ml_classifiers_base&#45;&gt;classic_ml_classifiers_svm</title><style>.edge>path:hover{stroke-width:8}</style>
<path fill="none" stroke="black" d="M643.26,-494.77C682.93,-482.77 742.6,-463.76 793.2,-443.69 797.58,-441.95 802.1,-440.06 806.59,-438.09"/>
<polygon fill="#e90c0c" stroke="black" points="808.03,-441.28 815.73,-434 805.18,-434.89 808.03,-441.28"/>
</g>
<!-- classic_ml_classifiers_logistic_regression&#45;&gt;classic_ml_classifiers -->
<g id="edge9" class="edge">
<title>classic_ml_classifiers_logistic_regression&#45;&gt;classic_ml_classifiers</title><style>.edge>path:hover{stroke-width:8}</style>
<path fill="none" stroke="black" d="M667.99,-390.02C647.27,-377.81 622.17,-363.04 601.97,-351.14"/>
<polygon fill="#b03a3a" stroke="black" points="603.74,-348.12 593.35,-346.07 600.19,-354.16 603.74,-348.12"/>
</g>
<!-- classic_ml_classifiers_naive_bayes&#45;&gt;classic_ml_classifiers -->
<g id="edge10" class="edge">
<title>classic_ml_classifiers_naive_bayes&#45;&gt;classic_ml_classifiers</title><style>.edge>path:hover{stroke-width:8}</style>
<path fill="none" stroke="black" d="M535.37,-386.59C540.07,-377.6 545.31,-367.56 550.08,-358.43"/>
<polygon fill="#b83d3d" stroke="black" points="553.31,-359.82 554.83,-349.34 547.1,-356.58 553.31,-359.82"/>
</g>
<!-- classic_ml_classifiers_registry -->
<g id="node7" class="node">
<title>classic_ml_classifiers_registry</title><style>.edge>path:hover{stroke-width:8}</style>
<ellipse fill="#ce3b3b" stroke="black" cx="398.2" cy="-414.7" rx="50.41" ry="28.98"/>
<text text-anchor="middle" x="398.2" y="-423.2" font-family="Helvetica,sans-Serif" font-size="10.00" fill="#ffffff">classic_ml.</text>
<text text-anchor="middle" x="398.2" y="-412.2" font-family="Helvetica,sans-Serif" font-size="10.00" fill="#ffffff">classifiers.</text>
<text text-anchor="middle" x="398.2" y="-401.2" font-family="Helvetica,sans-Serif" font-size="10.00" fill="#ffffff">registry</text>
</g>
<!-- classic_ml_classifiers_registry&#45;&gt;classic_ml_classifiers -->
<g id="edge11" class="edge">
<title>classic_ml_classifiers_registry&#45;&gt;classic_ml_classifiers</title><style>.edge>path:hover{stroke-width:8}</style>
<path fill="none" stroke="black" d="M435.27,-395.01C461.83,-381.62 497.58,-363.59 524.86,-349.83"/>
<polygon fill="#ce3b3b" stroke="black" points="526.77,-352.79 534.13,-345.16 523.62,-346.54 526.77,-352.79"/>
</g>
<!-- classic_ml_classifiers_registry&#45;&gt;classic_ml_config -->
<g id="edge12" class="edge">
<title>classic_ml_classifiers_registry&#45;&gt;classic_ml_config</title><style>.edge>path:hover{stroke-width:8}</style>
<path fill="none" stroke="black" d="M350.89,-404.93C311.8,-394.65 260.22,-373.12 244.2,-329.49"/>
</g>
<!-- classic_ml_classifiers_svm&#45;&gt;classic_ml_classifiers -->
<g id="edge13" class="edge">
<title>classic_ml_classifiers_svm&#45;&gt;classic_ml_classifiers</title><style>.edge>path:hover{stroke-width:8}</style>
<path fill="none" stroke="black" d="M816.28,-394.92C808.77,-391.55 800.83,-388.28 793.2,-385.71 722.52,-361.79 701.3,-368.96 629.2,-349.71 624,-348.31 618.58,-346.77 613.21,-345.16"/>
<polygon fill="#b03a3a" stroke="black" points="614.21,-341.81 603.62,-342.24 612.17,-348.51 614.21,-341.81"/>
</g>
<!-- classic_ml_config&#45;&gt;classic_ml_classifier -->
<g id="edge14" class="edge">
<title>classic_ml_config&#45;&gt;classic_ml_classifier</title><style>.edge>path:hover{stroke-width:8}</style>
<path fill="none" stroke="black" d="M265.49,-230.17C275.21,-220.64 287.17,-208.93 297.74,-198.57"/>
<polygon fill="#d31717" stroke="black" points="300.45,-200.81 305.15,-191.31 295.55,-195.81 300.45,-200.81"/>
</g>
<!-- classic_ml_config&#45;&gt;classic_ml_facade -->
<g id="edge15" class="edge">
<title>classic_ml_config&#45;&gt;classic_ml_facade</title><style>.edge>path:hover{stroke-width:8}</style>
<path fill="none" stroke="black" d="M243.23,-228.84C240.06,-208.75 234.5,-177.18 227.2,-150.43 224.82,-141.66 221.72,-132.31 218.68,-123.79"/>
<polygon fill="#d31717" stroke="black" points="221.91,-122.45 215.18,-114.27 215.34,-124.87 221.91,-122.45"/>
</g>
<!-- classic_ml_ngrams -->
<g id="node11" class="node">
<title>classic_ml_ngrams</title><style>.edge>path:hover{stroke-width:8}</style>
<ellipse fill="#a83838" stroke="black" cx="168.2" cy="-171.64" rx="50.41" ry="21.43"/>
<text text-anchor="middle" x="168.2" y="-174.64" font-family="Helvetica,sans-Serif" font-size="10.00" fill="#ffffff">classic_ml.</text>
<text text-anchor="middle" x="168.2" y="-163.64" font-family="Helvetica,sans-Serif" font-size="10.00" fill="#ffffff">ngrams</text>
</g>
<!-- classic_ml_config&#45;&gt;classic_ml_ngrams -->
<g id="edge16" class="edge">
<title>classic_ml_config&#45;&gt;classic_ml_ngrams</title><style>.edge>path:hover{stroke-width:8}</style>
<path fill="none" stroke="black" d="M226.92,-230.17C217.19,-220.64 205.24,-208.93 194.67,-198.57"/>
<polygon fill="#d31717" stroke="black" points="196.86,-195.81 187.26,-191.31 191.96,-200.81 196.86,-195.81"/>
</g>
<!-- classic_ml_words -->
<g id="node13" class="node">
<title>classic_ml_words</title><style>.edge>path:hover{stroke-width:8}</style>
<ellipse fill="#b03a3a" stroke="black" cx="50.2" cy="-171.64" rx="50.41" ry="21.43"/>
<text text-anchor="middle" x="50.2" y="-174.64" font-family="Helvetica,sans-Serif" font-size="10.00" fill="#ffffff">classic_ml.</text>
<text text-anchor="middle" x="50.2" y="-163.64" font-family="Helvetica,sans-Serif" font-size="10.00" fill="#ffffff">words</text>
</g>
<!-- classic_ml_config&#45;&gt;classic_ml_words -->
<g id="edge17" class="edge">
<title>classic_ml_config&#45;&gt;classic_ml_words</title><style>.edge>path:hover{stroke-width:8}</style>
<path fill="none" stroke="black" d="M210.26,-235.05C177.93,-222.44 130.3,-203.87 95.41,-190.27"/>
<polygon fill="#d31717" stroke="black" points="96.51,-186.94 85.93,-186.57 93.97,-193.46 96.51,-186.94"/>
</g>
<!-- classic_ml_facade&#45;&gt;classic_ml -->
<g id="edge18" class="edge">
<title>classic_ml_facade&#45;&gt;classic_ml</title><style>.edge>path:hover{stroke-width:8}</style>
<path fill="none" stroke="black" d="M207.2,-71.82C207.2,-63.97 207.2,-54.86 207.2,-46.45"/>
<polygon fill="#a83838" stroke="black" points="210.7,-46.31 207.2,-36.31 203.7,-46.31 210.7,-46.31"/>
</g>
<!-- classic_ml_ngrams&#45;&gt;classic_ml_facade -->
<g id="edge19" class="edge">
<title>classic_ml_ngrams&#45;&gt;classic_ml_facade</title><style>.edge>path:hover{stroke-width:8}</style>
<path fill="none" stroke="black" d="M178.45,-150.56C182.71,-142.22 187.73,-132.39 192.37,-123.28"/>
<polygon fill="#a83838" stroke="black" points="195.6,-124.66 197.03,-114.16 189.36,-121.48 195.6,-124.66"/>
</g>
<!-- classic_ml_plotting -->
<g id="node12" class="node">
<title>classic_ml_plotting</title><style>.edge>path:hover{stroke-width:8}</style>
<ellipse fill="#c82323" stroke="black" cx="90.2" cy="-250.07" rx="50.41" ry="21.43"/>
<text text-anchor="middle" x="90.2" y="-253.07" font-family="Helvetica,sans-Serif" font-size="10.00" fill="#ffffff">classic_ml.</text>
<text text-anchor="middle" x="90.2" y="-242.07" font-family="Helvetica,sans-Serif" font-size="10.00" fill="#ffffff">plotting</text>
</g>
<!-- classic_ml_plotting&#45;&gt;classic_ml_classifier -->
<g id="edge20" class="edge">
<title>classic_ml_plotting&#45;&gt;classic_ml_classifier</title><style>.edge>path:hover{stroke-width:8}</style>
<path fill="none" stroke="black" d="M128.84,-236.45C169.15,-223.28 232.43,-202.62 275.98,-188.39"/>
<polygon fill="#c82323" stroke="black" points="277.09,-191.71 285.51,-185.28 274.91,-185.06 277.09,-191.71"/>
</g>
<!-- classic_ml_plotting&#45;&gt;classic_ml_ngrams -->
<g id="edge21" class="edge">
<title>classic_ml_plotting&#45;&gt;classic_ml_ngrams</title><style>.edge>path:hover{stroke-width:8}</style>
<path fill="none" stroke="black" d="M109.49,-230.17C119.21,-220.64 131.17,-208.93 141.74,-198.57"/>
<polygon fill="#c82323" stroke="black" points="144.45,-200.81 149.15,-191.31 139.55,-195.81 144.45,-200.81"/>
</g>
<!-- classic_ml_plotting&#45;&gt;classic_ml_words -->
<g id="edge22" class="edge">
<title>classic_ml_plotting&#45;&gt;classic_ml_words</title><style>.edge>path:hover{stroke-width:8}</style>
<path fill="none" stroke="black" d="M79.7,-228.99C75.33,-220.65 70.18,-210.81 65.42,-201.71"/>
<polygon fill="#c82323" stroke="black" points="68.38,-199.82 60.64,-192.59 62.18,-203.07 68.38,-199.82"/>
</g>
<!-- classic_ml_words&#45;&gt;classic_ml_facade -->
<g id="edge23" class="edge">
<title>classic_ml_words&#45;&gt;classic_ml_facade</title><style>.edge>path:hover{stroke-width:8}</style>
<path fill="none" stroke="black" d="M81.98,-155.17C106.24,-143.36 139.86,-127 166.15,-114.2"/>
<polygon fill="#b03a3a" stroke="black" points="168.02,-117.18 175.48,-109.66 164.96,-110.89 168.02,-117.18"/>
</g>
<!-- matplotlib -->
<g id="node14" class="node">
<title>matplotlib</title><style>.edge>path:hover{stroke-width:8}</style>
<polygon fill="#c4c431" stroke="black" points="143.7,-609.67 140.7,-613.67 119.7,-613.67 116.7,-609.67 76.7,-609.67 76.7,-573.67 143.7,-573.67 143.7,-609.67"/>
<text text-anchor="middle" x="110.2" y="-589.17" font-family="Helvetica,sans-Serif" font-size="10.00" fill="#000000">matplotlib</text>
</g>
<!-- matplotlib&#45;&gt;classic_ml_plotting -->
<g id="edge24" class="edge">
<title>matplotlib&#45;&gt;classic_ml_plotting</title><style>.edge>path:hover{stroke-width:8}</style>
<path fill="none" stroke="black" d="M108.44,-573.45C107.17,-556.94 106.28,-531.4 110.2,-509.68"/>
</g>
<!-- nltk -->
<g id="node15" class="node">
<title>nltk</title><style>.edge>path:hover{stroke-width:8}</style>
<polygon fill="#24d024" stroke="black" points="626.2,-753.67 623.2,-757.67 602.2,-757.67 599.2,-753.67 572.2,-753.67 572.2,-717.67 626.2,-717.67 626.2,-753.67"/>
<text text-anchor="middle" x="599.2" y="-733.17" font-family="Helvetica,sans-Serif" font-size="10.00" fill="#000000">nltk</text>
</g>
<!-- nltk&#45;&gt;classic_ml_classifiers_base -->
<g id="edge25" class="edge">
<title>nltk&#45;&gt;classic_ml_classifiers_base</title><style>.edge>path:hover{stroke-width:8}</style>
<path fill="none" stroke="black" d="M599.2,-590.67C596.13,-576.89 595.47,-561.46 595.8,-547.8"/>
<polygon fill="#24d024" stroke="black" points="599.29,-547.89 596.22,-537.75 592.3,-547.59 599.29,-547.89"/>
</g>
<!-- nltk&#45;&gt;classic_ml_classifiers_naive_bayes -->
<g id="edge26" class="edge">
<title>nltk&#45;&gt;classic_ml_classifiers_naive_bayes</title><style>.edge>path:hover{stroke-width:8}</style>
<path fill="none" stroke="black" d="M521.2,-507.68C506.63,-494.33 506.15,-472.39 509.54,-453.29"/>
<polygon fill="#24d024" stroke="black" points="513,-453.84 511.68,-443.33 506.15,-452.37 513,-453.84"/>
</g>
<!-- nltk&#45;&gt;classic_ml_ngrams -->
<g id="edge27" class="edge">
<title>nltk&#45;&gt;classic_ml_ngrams</title><style>.edge>path:hover{stroke-width:8}</style>
<path fill="none" stroke="black" d="M601.6,-717.36C604.81,-690.34 609.03,-636.7 599.2,-592.67"/>
<path fill="none" stroke="black" d="M599.2,-590.67C590.34,-556.56 563.38,-564.23 540.2,-537.67 530.32,-526.34 532.29,-519.83 521.2,-509.68"/>
<path fill="none" stroke="black" d="M521.2,-507.68C457.97,-449.77 413.41,-486.65 339.2,-443.69 289.67,-415.01 174.99,-307.9 168.2,-251.07"/>
</g>
<!-- numpy -->
<g id="node16" class="node">
<title>numpy</title><style>.edge>path:hover{stroke-width:8}</style>
<polygon fill="#19e6e6" stroke="black" points="626.2,-825.67 623.2,-829.67 602.2,-829.67 599.2,-825.67 572.2,-825.67 572.2,-789.67 626.2,-789.67 626.2,-825.67"/>
<text text-anchor="middle" x="599.2" y="-805.17" font-family="Helvetica,sans-Serif" font-size="10.00" fill="#000000">numpy</text>
</g>
<!-- numpy&#45;&gt;classic_ml_plotting -->
<g id="edge28" class="edge">
<title>numpy&#45;&gt;classic_ml_plotting</title><style>.edge>path:hover{stroke-width:8}</style>
<path fill="none" stroke="black" d="M572.06,-804.51C472.15,-795.83 129.7,-759.26 110.2,-664.67"/>
<path fill="none" stroke="black" d="M110.2,-662.67C91.15,-639.07 77.34,-638.26 67.2,-609.67 61.86,-594.59 62.54,-588.98 67.2,-573.67 77.19,-540.89 104.11,-543.4 110.2,-509.68"/>
<path fill="none" stroke="black" d="M110.2,-507.68C120.81,-426.32 105.91,-329.66 96.64,-281.5"/>
<polygon fill="#19e6e6" stroke="black" points="100.02,-280.56 94.65,-271.43 93.16,-281.92 100.02,-280.56"/>
</g>
<!-- numpy&#45;&gt;matplotlib -->
<g id="edge29" class="edge">
<title>numpy&#45;&gt;matplotlib</title><style>.edge>path:hover{stroke-width:8}</style>
<path fill="none" stroke="black" d="M110.2,-662.67C107.35,-648.82 107.09,-633.09 107.66,-620.05"/>
<polygon fill="#19e6e6" stroke="black" points="111.16,-620.04 108.29,-609.84 104.18,-619.61 111.16,-620.04"/>
</g>
<!-- numpy&#45;&gt;nltk -->
<g id="edge30" class="edge">
<title>numpy&#45;&gt;nltk</title><style>.edge>path:hover{stroke-width:8}</style>
<path fill="none" stroke="black" d="M599.2,-789.37C599.2,-781.65 599.2,-772.38 599.2,-763.78"/>
<polygon fill="#19e6e6" stroke="black" points="602.7,-763.78 599.2,-753.78 595.7,-763.78 602.7,-763.78"/>
</g>
<!-- sklearn -->
<g id="node17" class="node">
<title>sklearn</title><style>.edge>path:hover{stroke-width:8}</style>
<polygon fill="#0606ef" stroke="black" points="819.2,-681.67 816.2,-685.67 795.2,-685.67 792.2,-681.67 765.2,-681.67 765.2,-645.67 819.2,-645.67 819.2,-681.67"/>
<text text-anchor="middle" x="792.2" y="-661.17" font-family="Helvetica,sans-Serif" font-size="10.00" fill="#ffffff">sklearn</text>
</g>
<!-- numpy&#45;&gt;sklearn -->
<g id="edge31" class="edge">
<title>numpy&#45;&gt;sklearn</title><style>.edge>path:hover{stroke-width:8}</style>
<path fill="none" stroke="black" d="M622.48,-789.54C656.97,-764.17 721.73,-716.53 760.51,-687.99"/>
<polygon fill="#19e6e6" stroke="black" points="762.86,-690.61 768.84,-681.86 758.71,-684.97 762.86,-690.61"/>
</g>
<!-- sklearn&#45;&gt;classic_ml_classifier -->
<g id="edge32" class="edge">
<title>sklearn&#45;&gt;classic_ml_classifier</title><style>.edge>path:hover{stroke-width:8}</style>
<path fill="none" stroke="black" d="M931.2,-507.68C917.54,-454.54 949.99,-425.49 912.2,-385.71 828.09,-297.15 736.87,-407.88 643.2,-329.49"/>
</g>
<!-- sklearn&#45;&gt;classic_ml_classifiers_logistic_regression -->
<g id="edge33" class="edge">
<title>sklearn&#45;&gt;classic_ml_classifiers_logistic_regression</title><style>.edge>path:hover{stroke-width:8}</style>
<path fill="none" stroke="black" d="M819.43,-650.44C867.2,-627.06 958.54,-572.73 931.2,-509.68"/>
<path fill="none" stroke="black" d="M931.2,-507.68C926.99,-491.28 839.13,-458.9 774.97,-437.27"/>
<polygon fill="#0606ef" stroke="black" points="775.89,-433.89 765.29,-434.03 773.66,-440.52 775.89,-433.89"/>
</g>
<!-- sklearn&#45;&gt;classic_ml_classifiers_svm -->
<g id="edge34" class="edge">
<title>sklearn&#45;&gt;classic_ml_classifiers_svm</title><style>.edge>path:hover{stroke-width:8}</style>
<path fill="none" stroke="black" d="M931.2,-507.68C921.24,-484.69 903.55,-463.09 887.53,-446.61"/>
<polygon fill="#0606ef" stroke="black" points="889.87,-444 880.32,-439.41 884.92,-448.96 889.87,-444"/>
</g>
<!-- utils -->
<g id="node18" class="node">
<title>utils</title><style>.edge>path:hover{stroke-width:8}</style>
<polygon fill="#e722e7" stroke="black" points="554.2,-753.67 551.2,-757.67 530.2,-757.67 527.2,-753.67 500.2,-753.67 500.2,-717.67 554.2,-717.67 554.2,-753.67"/>
<text text-anchor="middle" x="527.2" y="-733.17" font-family="Helvetica,sans-Serif" font-size="10.00" fill="#ffffff">utils</text>
</g>
<!-- utils&#45;&gt;classic_ml_classifier -->
<g id="edge35" class="edge">
<title>utils&#45;&gt;classic_ml_classifier</title><style>.edge>path:hover{stroke-width:8}</style>
<path fill="none" stroke="black" d="M320.2,-507.68C280.4,-469.92 308.5,-431.17 339.2,-385.71 371.92,-337.26 592.99,-302.5 565.2,-251.07"/>
<path fill="none" stroke="black" d="M565.2,-249.07C545.66,-217.19 445.37,-193.89 380.48,-181.87"/>
<polygon fill="#e722e7" stroke="black" points="380.85,-178.38 370.39,-180.04 379.6,-185.27 380.85,-178.38"/>
</g>
<!-- utils&#45;&gt;classic_ml_classifiers_base -->
<g id="edge36" class="edge">
<title>utils&#45;&gt;classic_ml_classifiers_base</title><style>.edge>path:hover{stroke-width:8}</style>
<path fill="none" stroke="black" d="M561.2,-590.67C553.75,-574.95 560.1,-557.48 569.59,-542.8"/>
<polygon fill="#e722e7" stroke="black" points="572.54,-544.7 575.47,-534.52 566.83,-540.65 572.54,-544.7"/>
</g>
<!-- utils&#45;&gt;classic_ml_config -->
<g id="edge37" class="edge">
<title>utils&#45;&gt;classic_ml_config</title><style>.edge>path:hover{stroke-width:8}</style>
<path fill="none" stroke="black" d="M244.2,-413.7C224.72,-381.74 257.1,-364.62 244.2,-329.49"/>
<path fill="none" stroke="black" d="M244.2,-327.49C238.83,-312.85 238.81,-295.55 240.36,-281.12"/>
<polygon fill="#e722e7" stroke="black" points="243.83,-281.58 241.72,-271.2 236.9,-280.63 243.83,-281.58"/>
</g>
<!-- utils&#45;&gt;classic_ml_ngrams -->
<g id="edge38" class="edge">
<title>utils&#45;&gt;classic_ml_ngrams</title><style>.edge>path:hover{stroke-width:8}</style>
<path fill="none" stroke="black" d="M168.2,-327.49C144.99,-302.7 172.23,-284.79 168.2,-251.07"/>
<path fill="none" stroke="black" d="M168.2,-249.07C166.41,-234.05 166.22,-217.26 166.55,-203.25"/>
<polygon fill="#e722e7" stroke="black" points="170.05,-203.27 166.89,-193.15 163.05,-203.03 170.05,-203.27"/>
</g>
<!-- utils&#45;&gt;classic_ml_words -->
<g id="edge39" class="edge">
<title>utils&#45;&gt;classic_ml_words</title><style>.edge>path:hover{stroke-width:8}</style>
<path fill="none" stroke="black" d="M538.5,-717.29C554.88,-689.74 581.19,-634.82 561.2,-592.67"/>
<path fill="none" stroke="black" d="M561.2,-590.67C512.8,-488.57 401.82,-587.83 320.2,-509.68"/>
<path fill="none" stroke="black" d="M320.2,-507.68C281.9,-471 271.81,-460.97 244.2,-415.7"/>
<path fill="none" stroke="black" d="M244.2,-413.7C217.96,-370.66 202.66,-366.29 168.2,-329.49"/>
<path fill="none" stroke="black" d="M168.2,-327.49C123.22,-279.45 67.86,-325.94 31.2,-271.28 17.39,-250.68 24.79,-222.53 34.09,-201.57"/>
<polygon fill="#e722e7" stroke="black" points="37.28,-203.03 38.43,-192.5 30.96,-200.01 37.28,-203.03"/>
</g>
</g>
</svg>
