<?xml version="1.0" encoding="UTF-8" standalone="no"?>
<!DOCTYPE svg PUBLIC "-//W3C//DTD SVG 1.1//EN"
 "http://www.w3.org/Graphics/SVG/1.1/DTD/svg11.dtd">
<!-- Generated by graphviz version 2.43.0 (0)
 -->
<!-- Title: G Pages: 1 -->
<svg width="531pt" height="238pt"
 viewBox="0.00 0.00 530.89 237.85" xmlns="http://www.w3.org/2000/svg" xmlns:xlink="http://www.w3.org/1999/xlink">
<g id="graph0" class="graph" transform="scale(1 1) rotate(0) translate(4 233.85)">
<title>G</title><style>.edge>path:hover{stroke-width:8}</style>
<polygon fill="white" stroke="transparent" points="-4,4 -4,-233.85 526.89,-233.85 526.89,4 -4,4"/>
<!-- utils -->
<g id="node1" class="node">
<title>utils</title><style>.edge>path:hover{stroke-width:8}</style>
<ellipse fill="#2f2fbc" stroke="black" cx="153.55" cy="-21.21" rx="27" ry="18"/>
<text text-anchor="middle" x="153.55" y="-18.71" font-family="Helvetica,sans-Serif" font-size="10.00" fill="#ffffff">utils</text>
</g>
<!-- utils_cache_utils -->
<g id="node2" class="node">
<title>utils_cache_utils</title><style>.edge>path:hover{stroke-width:8}</style>
<ellipse fill="#2f2fdb" stroke="black" cx="267.55" cy="-99.64" rx="50.41" ry="21.43"/>
<text text-anchor="middle" x="267.55" y="-102.64" font-family="Helvetica,sans-Serif" font-size="10.00" fill="#ffffff">utils.</text>
<text text-anchor="middle" x="267.55" y="-91.64" font-family="Helvetica,sans-Serif" font-size="10.00" fill="#ffffff">cache_utils</text>
</g>
<!-- utils_cache_utils&#45;&gt;utils -->
<g id="edge3" class="edge">
<title>utils_cache_utils&#45;&gt;utils</title><style>.edge>path:hover{stroke-width:8}</style>
<path fill="none" stroke="black" d="M241.68,-81.3C223.39,-69.03 198.93,-52.64 180.42,-40.23"/>
<polygon fill="#2f2fdb" stroke="black" points="182.11,-37.15 171.86,-34.49 178.22,-42.97 182.11,-37.15"/>
</g>
<!-- utils_clean_caches -->
<g id="node3" class="node">
<title>utils_clean_caches</title><style>.edge>path:hover{stroke-width:8}</style>
<ellipse fill="#4949ac" stroke="black" cx="261.55" cy="-21.21" rx="57.97" ry="21.43"/>
<text text-anchor="middle" x="261.55" y="-24.21" font-family="Helvetica,sans-Serif" font-size="10.00" fill="#ffffff">utils.</text>
<text text-anchor="middle" x="261.55" y="-13.21" font-family="Helvetica,sans-Serif" font-size="10.00" fill="#ffffff">clean_caches</text>
</g>
<!-- utils_cache_utils&#45;&gt;utils_clean_caches -->
<g id="edge4" class="edge">
<title>utils_cache_utils&#45;&gt;utils_clean_caches</title><style>.edge>path:hover{stroke-width:8}</style>
<path fill="none" stroke="black" d="M265.94,-78.16C265.32,-70.3 264.6,-61.16 263.93,-52.57"/>
<polygon fill="#2f2fdb" stroke="black" points="267.41,-52.18 263.14,-42.49 260.43,-52.73 267.41,-52.18"/>
</g>
<!-- utils_clean_output -->
<g id="node4" class="node">
<title>utils_clean_output</title><style>.edge>path:hover{stroke-width:8}</style>
<ellipse fill="#4949ac" stroke="black" cx="394.55" cy="-21.21" rx="56.64" ry="21.43"/>
<text text-anchor="middle" x="394.55" y="-24.21" font-family="Helvetica,sans-Serif" font-size="10.00" fill="#ffffff">utils.</text>
<text text-anchor="middle" x="394.55" y="-13.21" font-family="Helvetica,sans-Serif" font-size="10.00" fill="#ffffff">clean_output</text>
</g>
<!-- utils_cache_utils&#45;&gt;utils_clean_output -->
<g id="edge5" class="edge">
<title>utils_cache_utils&#45;&gt;utils_clean_output</title><style>.edge>path:hover{stroke-width:8}</style>
<path fill="none" stroke="black" d="M295.42,-81.87C313.4,-71.05 337.02,-56.83 356.69,-44.99"/>
<polygon fill="#2f2fdb" stroke="black" points="358.66,-47.9 365.42,-39.74 355.05,-41.9 358.66,-47.9"/>
</g>
<!-- utils_compare_genai_configs -->
<g id="node5" class="node">
<title>utils_compare_genai_configs</title><style>.edge>path:hover{stroke-width:8}</style>
<ellipse fill="#4949ac" stroke="black" cx="429.55" cy="-99.64" rx="93.18" ry="21.43"/>
<text text-anchor="middle" x="429.55" y="-102.64" font-family="Helvetica,sans-Serif" font-size="10.00" fill="#ffffff">utils.</text>
<text text-anchor="middle" x="429.55" y="-91.64" font-family="Helvetica,sans-Serif" font-size="10.00" fill="#ffffff">compare_genai_configs</text>
</g>
<!-- utils_sms_utils -->
<g id="node6" class="node">
<title>utils_sms_utils</title><style>.edge>path:hover{stroke-width:8}</style>
<ellipse fill="#3d3db8" stroke="black" cx="44.55" cy="-99.64" rx="44.6" ry="21.43"/>
<text text-anchor="middle" x="44.55" y="-102.64" font-family="Helvetica,sans-Serif" font-size="10.00" fill="#ffffff">utils.</text>
<text text-anchor="middle" x="44.55" y="-91.64" font-family="Helvetica,sans-Serif" font-size="10.00" fill="#ffffff">sms_utils</text>
</g>
<!-- utils_sms_utils&#45;&gt;utils -->
<g id="edge6" class="edge">
<title>utils_sms_utils&#45;&gt;utils</title><style>.edge>path:hover{stroke-width:8}</style>
<path fill="none" stroke="black" d="M68.74,-81.68C86.09,-69.51 109.46,-53.12 127.27,-40.63"/>
<polygon fill="#3d3db8" stroke="black" points="129.34,-43.46 135.52,-34.85 125.32,-37.73 129.34,-43.46"/>
</g>
<!-- utils_validation -->
<g id="node7" class="node">
<title>utils_validation</title><style>.edge>path:hover{stroke-width:8}</style>
<ellipse fill="#4747c2" stroke="black" cx="153.55" cy="-99.64" rx="45.92" ry="21.43"/>
<text text-anchor="middle" x="153.55" y="-102.64" font-family="Helvetica,sans-Serif" font-size="10.00" fill="#ffffff">utils.</text>
<text text-anchor="middle" x="153.55" y="-91.64" font-family="Helvetica,sans-Serif" font-size="10.00" fill="#ffffff">validation</text>
</g>
<!-- utils_validation&#45;&gt;utils -->
<g id="edge7" class="edge">
<title>utils_validation&#45;&gt;utils</title><style>.edge>path:hover{stroke-width:8}</style>
<path fill="none" stroke="black" d="M153.55,-78.16C153.55,-69.42 153.55,-59.09 153.55,-49.7"/>
<polygon fill="#4747c2" stroke="black" points="157.05,-49.64 153.55,-39.64 150.05,-49.64 157.05,-49.64"/>
</g>
<!-- matplotlib -->
<g id="node8" class="node">
<title>matplotlib</title><style>.edge>path:hover{stroke-width:8}</style>
<polygon fill="#c43131" stroke="black" points="463.05,-229.85 460.05,-233.85 439.05,-233.85 436.05,-229.85 396.05,-229.85 396.05,-193.85 463.05,-193.85 463.05,-229.85"/>
<text text-anchor="middle" x="429.55" y="-209.35" font-family="Helvetica,sans-Serif" font-size="10.00" fill="#ffffff">matplotlib</text>
</g>
<!-- matplotlib&#45;&gt;utils_compare_genai_configs -->
<g id="edge1" class="edge">
<title>matplotlib&#45;&gt;utils_compare_genai_configs</title><style>.edge>path:hover{stroke-width:8}</style>
<path fill="none" stroke="black" d="M429.55,-193.63C429.55,-177 429.55,-151.46 429.55,-131.35"/>
<polygon fill="#c43131" stroke="black" points="433.05,-131.11 429.55,-121.11 426.05,-131.11 433.05,-131.11"/>
</g>
<!-- nltk -->
<g id="node9" class="node">
<title>nltk</title><style>.edge>path:hover{stroke-width:8}</style>
<polygon fill="#33cc33" stroke="black" points="71.55,-229.85 68.55,-233.85 47.55,-233.85 44.55,-229.85 17.55,-229.85 17.55,-193.85 71.55,-193.85 71.55,-229.85"/>
<text text-anchor="middle" x="44.55" y="-209.35" font-family="Helvetica,sans-Serif" font-size="10.00" fill="#000000">nltk</text>
</g>
<!-- nltk&#45;&gt;utils_sms_utils -->
<g id="edge2" class="edge">
<title>nltk&#45;&gt;utils_sms_utils</title><style>.edge>path:hover{stroke-width:8}</style>
<path fill="none" stroke="black" d="M44.55,-193.63C44.55,-177 44.55,-151.46 44.55,-131.35"/>
<polygon fill="#33cc33" stroke="black" points="48.05,-131.11 44.55,-121.11 41.05,-131.11 48.05,-131.11"/>
</g>
</g>
</svg>
