<?xml version="1.0" encoding="UTF-8" standalone="no"?>
<!DOCTYPE svg PUBLIC "-//W3C//DTD SVG 1.1//EN"
 "http://www.w3.org/Graphics/SVG/1.1/DTD/svg11.dtd">
<!-- Generated by graphviz version 2.43.0 (0)
 -->
<!-- Title: G Pages: 1 -->
<svg width="1015pt" height="834pt"
 viewBox="0.00 0.00 1014.89 833.67" xmlns="http://www.w3.org/2000/svg" xmlns:xlink="http://www.w3.org/1999/xlink">
<g id="graph0" class="graph" transform="scale(1 1) rotate(0) translate(4 829.67)">
<title>G</title><style>.edge>path:hover{stroke-width:8}</style>
<polygon fill="white" stroke="transparent" points="-4,4 -4,-829.67 1010.89,-829.67 1010.89,4 -4,4"/>
<!-- classic_ml -->
<g id="node1" class="node">
<title>classic_ml</title><style>.edge>path:hover{stroke-width:8}</style>
<ellipse fill="#b34c4c" stroke="black" cx="275.74" cy="-18" rx="40.06" ry="18"/>
<text text-anchor="middle" x="275.74" y="-15.5" font-family="Helvetica,sans-Serif" font-size="10.00" fill="#ffffff">classic_ml</text>
</g>
<!-- classic_ml_classifier -->
<g id="node2" class="node">
<title>classic_ml_classifier</title><style>.edge>path:hover{stroke-width:8}</style>
<ellipse fill="#913030" stroke="black" cx="392.74" cy="-171.64" rx="50.41" ry="21.43"/>
<text text-anchor="middle" x="392.74" y="-174.64" font-family="Helvetica,sans-Serif" font-size="10.00" fill="#ffffff">classic_ml.</text>
<text text-anchor="middle" x="392.74" y="-163.64" font-family="Helvetica,sans-Serif" font-size="10.00" fill="#ffffff">classifier</text>
</g>
<!-- classic_ml_facade -->
<g id="node10" class="node">
<title>classic_ml_facade</title><style>.edge>path:hover{stroke-width:8}</style>
<ellipse fill="#a83838" stroke="black" cx="275.74" cy="-93.21" rx="50.41" ry="21.43"/>
<text text-anchor="middle" x="275.74" y="-96.21" font-family="Helvetica,sans-Serif" font-size="10.00" fill="#ffffff">classic_ml.</text>
<text text-anchor="middle" x="275.74" y="-85.21" font-family="Helvetica,sans-Serif" font-size="10.00" fill="#ffffff">facade</text>
</g>
<!-- classic_ml_classifier&#45;&gt;classic_ml_facade -->
<g id="edge1" class="edge">
<title>classic_ml_classifier&#45;&gt;classic_ml_facade</title><style>.edge>path:hover{stroke-width:8}</style>
<path fill="none" stroke="black" d="M366.48,-153.49C350.04,-142.75 328.65,-128.78 310.77,-117.1"/>
<polygon fill="#913030" stroke="black" points="312.6,-114.11 302.31,-111.57 308.77,-119.97 312.6,-114.11"/>
</g>
<!-- classic_ml_classifiers -->
<g id="node3" class="node">
<title>classic_ml_classifiers</title><style>.edge>path:hover{stroke-width:8}</style>
<ellipse fill="#ac2b2b" stroke="black" cx="631.74" cy="-328.49" rx="50.41" ry="21.43"/>
<text text-anchor="middle" x="631.74" y="-331.49" font-family="Helvetica,sans-Serif" font-size="10.00" fill="#ffffff">classic_ml.</text>
<text text-anchor="middle" x="631.74" y="-320.49" font-family="Helvetica,sans-Serif" font-size="10.00" fill="#ffffff">classifiers</text>
</g>
<!-- classic_ml_classifiers&#45;&gt;classic_ml_classifier -->
<g id="edge2" class="edge">
<title>classic_ml_classifiers&#45;&gt;classic_ml_classifier</title><style>.edge>path:hover{stroke-width:8}</style>
<path fill="none" stroke="black" d="M637.08,-307.19C640.18,-290.87 641.74,-267.97 631.74,-251.07"/>
</g>
<!-- classic_ml_config -->
<g id="node9" class="node">
<title>classic_ml_config</title><style>.edge>path:hover{stroke-width:8}</style>
<ellipse fill="#d31717" stroke="black" cx="353.74" cy="-250.07" rx="50.41" ry="21.43"/>
<text text-anchor="middle" x="353.74" y="-253.07" font-family="Helvetica,sans-Serif" font-size="10.00" fill="#ffffff">classic_ml.</text>
<text text-anchor="middle" x="353.74" y="-242.07" font-family="Helvetica,sans-Serif" font-size="10.00" fill="#ffffff">config</text>
</g>
<!-- classic_ml_classifiers&#45;&gt;classic_ml_config -->
<g id="edge3" class="edge">
<title>classic_ml_classifiers&#45;&gt;classic_ml_config</title><style>.edge>path:hover{stroke-width:8}</style>
<path fill="none" stroke="black" d="M590.72,-316.22C541.34,-302.64 458.4,-279.84 404.89,-265.13"/>
<polygon fill="#ac2b2b" stroke="black" points="405.49,-261.67 394.92,-262.39 403.64,-268.41 405.49,-261.67"/>
</g>
<!-- classic_ml_classifiers_base -->
<g id="node4" class="node">
<title>classic_ml_classifiers_base</title><style>.edge>path:hover{stroke-width:8}</style>
<ellipse fill="#e90c0c" stroke="black" cx="712.74" cy="-508.68" rx="50.41" ry="28.98"/>
<text text-anchor="middle" x="712.74" y="-517.18" font-family="Helvetica,sans-Serif" font-size="10.00" fill="#ffffff">classic_ml.</text>
<text text-anchor="middle" x="712.74" y="-506.18" font-family="Helvetica,sans-Serif" font-size="10.00" fill="#ffffff">classifiers.</text>
<text text-anchor="middle" x="712.74" y="-495.18" font-family="Helvetica,sans-Serif" font-size="10.00" fill="#ffffff">base</text>
</g>
<!-- classic_ml_classifiers_base&#45;&gt;classic_ml_classifier -->
<g id="edge4" class="edge">
<title>classic_ml_classifiers_base&#45;&gt;classic_ml_classifier</title><style>.edge>path:hover{stroke-width:8}</style>
<path fill="none" stroke="black" d="M761.73,-502.33C845.81,-491.81 1007.95,-465.04 1000.74,-415.7"/>
<path fill="none" stroke="black" d="M1000.74,-413.7C998.56,-398.82 993.51,-395.05 981.74,-385.71 916.46,-333.9 674.18,-322.78 631.74,-251.07"/>
</g>
<!-- classic_ml_classifiers_base&#45;&gt;classic_ml_classifiers -->
<g id="edge5" class="edge">
<title>classic_ml_classifiers_base&#45;&gt;classic_ml_classifiers</title><style>.edge>path:hover{stroke-width:8}</style>
<path fill="none" stroke="black" d="M700.26,-480.23C685.31,-447.35 660.38,-392.51 645.07,-358.83"/>
<polygon fill="#e90c0c" stroke="black" points="648.16,-357.16 640.84,-349.51 641.79,-360.06 648.16,-357.16"/>
</g>
<!-- classic_ml_classifiers_logistic_regression -->
<g id="node5" class="node">
<title>classic_ml_classifiers_logistic_regression</title><style>.edge>path:hover{stroke-width:8}</style>
<ellipse fill="#b03a3a" stroke="black" cx="896.74" cy="-414.7" rx="76.24" ry="28.98"/>
<text text-anchor="middle" x="896.74" y="-423.2" font-family="Helvetica,sans-Serif" font-size="10.00" fill="#ffffff">classic_ml.</text>
<text text-anchor="middle" x="896.74" y="-412.2" font-family="Helvetica,sans-Serif" font-size="10.00" fill="#ffffff">classifiers.</text>
<text text-anchor="middle" x="896.74" y="-401.2" font-family="Helvetica,sans-Serif" font-size="10.00" fill="#ffffff">logistic_regression</text>
</g>
<!-- classic_ml_classifiers_base&#45;&gt;classic_ml_classifiers_logistic_regression -->
<g id="edge6" class="edge">
<title>classic_ml_classifiers_base&#45;&gt;classic_ml_classifiers_logistic_regression</title><style>.edge>path:hover{stroke-width:8}</style>
<path fill="none" stroke="black" d="M749.97,-489.07C776.62,-475.74 812.9,-457.61 842.72,-442.7"/>
<polygon fill="#e90c0c" stroke="black" points="844.37,-445.79 851.75,-438.18 841.24,-439.52 844.37,-445.79"/>
</g>
<!-- classic_ml_classifiers_naive_bayes -->
<g id="node6" class="node">
<title>classic_ml_classifiers_naive_bayes</title><style>.edge>path:hover{stroke-width:8}</style>
<ellipse fill="#b83d3d" stroke="black" cx="590.74" cy="-414.7" rx="55.31" ry="28.98"/>
<text text-anchor="middle" x="590.74" y="-423.2" font-family="Helvetica,sans-Serif" font-size="10.00" fill="#ffffff">classic_ml.</text>
<text text-anchor="middle" x="590.74" y="-412.2" font-family="Helvetica,sans-Serif" font-size="10.00" fill="#ffffff">classifiers.</text>
<text text-anchor="middle" x="590.74" y="-401.2" font-family="Helvetica,sans-Serif" font-size="10.00" fill="#ffffff">naive_bayes</text>
</g>
<!-- classic_ml_classifiers_base&#45;&gt;classic_ml_classifiers_naive_bayes -->
<g id="edge7" class="edge">
<title>classic_ml_classifiers_base&#45;&gt;classic_ml_classifiers_naive_bayes</title><style>.edge>path:hover{stroke-width:8}</style>
<path fill="none" stroke="black" d="M682.89,-485.18C666.89,-473.11 646.97,-458.1 629.75,-445.11"/>
<polygon fill="#e90c0c" stroke="black" points="631.64,-442.15 621.55,-438.93 627.42,-447.74 631.64,-442.15"/>
</g>
<!-- classic_ml_classifiers_svm -->
<g id="node8" class="node">
<title>classic_ml_classifiers_svm</title><style>.edge>path:hover{stroke-width:8}</style>
<ellipse fill="#b03a3a" stroke="black" cx="751.74" cy="-414.7" rx="50.41" ry="28.98"/>
<text text-anchor="middle" x="751.74" y="-423.2" font-family="Helvetica,sans-Serif" font-size="10.00" fill="#ffffff">classic_ml.</text>
<text text-anchor="middle" x="751.74" y="-412.2" font-family="Helvetica,sans-Serif" font-size="10.00" fill="#ffffff">classifiers.</text>
<text text-anchor="middle" x="751.74" y="-401.2" font-family="Helvetica,sans-Serif" font-size="10.00" fill="#ffffff">svm</text>
</g>
<!-- classic_ml_classifiers_base&#45;&gt;classic_ml_classifiers_svm -->
<g id="edge8" class="edge">
<title>classic_ml_classifiers_base&#45;&gt;classic_ml_classifiers_svm</title><style>.edge>path:hover{stroke-width:8}</style>
<path fill="none" stroke="black" d="M724.44,-480.08C728.13,-471.36 732.28,-461.59 736.2,-452.34"/>
<polygon fill="#e90c0c" stroke="black" points="739.5,-453.53 740.18,-442.96 733.05,-450.8 739.5,-453.53"/>
</g>
<!-- classic_ml_classifiers_logistic_regression&#45;&gt;classic_ml_classifiers -->
<g id="edge9" class="edge">
<title>classic_ml_classifiers_logistic_regression&#45;&gt;classic_ml_classifiers</title><style>.edge>path:hover{stroke-width:8}</style>
<path fill="none" stroke="black" d="M839.87,-395.09C830.15,-391.94 820.16,-388.71 810.74,-385.71 759.72,-369.42 746.83,-365.77 695.74,-349.71 690.86,-348.17 685.77,-346.57 680.7,-344.97"/>
<polygon fill="#b03a3a" stroke="black" points="681.58,-341.58 670.99,-341.91 679.48,-348.25 681.58,-341.58"/>
</g>
<!-- classic_ml_classifiers_naive_bayes&#45;&gt;classic_ml_classifiers -->
<g id="edge10" class="edge">
<title>classic_ml_classifiers_naive_bayes&#45;&gt;classic_ml_classifiers</title><style>.edge>path:hover{stroke-width:8}</style>
<path fill="none" stroke="black" d="M604.16,-386.13C608.45,-377.32 613.21,-367.55 617.55,-358.63"/>
<polygon fill="#b83d3d" stroke="black" points="620.82,-359.91 622.05,-349.38 614.53,-356.84 620.82,-359.91"/>
</g>
<!-- classic_ml_classifiers_registry -->
<g id="node7" class="node">
<title>classic_ml_classifiers_registry</title><style>.edge>path:hover{stroke-width:8}</style>
<ellipse fill="#ce3b3b" stroke="black" cx="429.74" cy="-414.7" rx="50.41" ry="28.98"/>
<text text-anchor="middle" x="429.74" y="-423.2" font-family="Helvetica,sans-Serif" font-size="10.00" fill="#ffffff">classic_ml.</text>
<text text-anchor="middle" x="429.74" y="-412.2" font-family="Helvetica,sans-Serif" font-size="10.00" fill="#ffffff">classifiers.</text>
<text text-anchor="middle" x="429.74" y="-401.2" font-family="Helvetica,sans-Serif" font-size="10.00" fill="#ffffff">registry</text>
</g>
<!-- classic_ml_classifiers_registry&#45;&gt;classic_ml_classifiers -->
<g id="edge11" class="edge">
<title>classic_ml_classifiers_registry&#45;&gt;classic_ml_classifiers</title><style>.edge>path:hover{stroke-width:8}</style>
<path fill="none" stroke="black" d="M469.65,-397.06C503.59,-382.91 552.29,-362.61 587.43,-347.96"/>
<polygon fill="#ce3b3b" stroke="black" points="589.08,-351.07 596.96,-343.99 586.39,-344.61 589.08,-351.07"/>
</g>
<!-- classic_ml_classifiers_registry&#45;&gt;classic_ml_config -->
<g id="edge12" class="edge">
<title>classic_ml_classifiers_registry&#45;&gt;classic_ml_config</title><style>.edge>path:hover{stroke-width:8}</style>
<path fill="none" stroke="black" d="M397.09,-392.38C378.16,-377.51 357.03,-355.66 351.74,-329.49"/>
</g>
<!-- classic_ml_classifiers_svm&#45;&gt;classic_ml_classifiers -->
<g id="edge13" class="edge">
<title>classic_ml_classifiers_svm&#45;&gt;classic_ml_classifiers</title><style>.edge>path:hover{stroke-width:8}</style>
<path fill="none" stroke="black" d="M720.52,-391.79C703.45,-379.82 682.31,-364.98 664.94,-352.79"/>
<polygon fill="#b03a3a" stroke="black" points="666.95,-349.92 656.75,-347.05 662.93,-355.66 666.95,-349.92"/>
</g>
<!-- classic_ml_config&#45;&gt;classic_ml_classifier -->
<g id="edge14" class="edge">
<title>classic_ml_config&#45;&gt;classic_ml_classifier</title><style>.edge>path:hover{stroke-width:8}</style>
<path fill="none" stroke="black" d="M363.98,-228.99C368.24,-220.65 373.26,-210.81 377.9,-201.71"/>
<polygon fill="#d31717" stroke="black" points="381.13,-203.08 382.56,-192.59 374.9,-199.9 381.13,-203.08"/>
</g>
<!-- classic_ml_config&#45;&gt;classic_ml_facade -->
<g id="edge15" class="edge">
<title>classic_ml_config&#45;&gt;classic_ml_facade</title><style>.edge>path:hover{stroke-width:8}</style>
<path fill="none" stroke="black" d="M343.7,-229.14C330.13,-202.19 305.83,-153.96 290.26,-123.06"/>
<polygon fill="#d31717" stroke="black" points="293.36,-121.42 285.74,-114.06 287.11,-124.57 293.36,-121.42"/>
</g>
<!-- classic_ml_ngrams -->
<g id="node11" class="node">
<title>classic_ml_ngrams</title><style>.edge>path:hover{stroke-width:8}</style>
<ellipse fill="#a13535" stroke="black" cx="236.74" cy="-171.64" rx="50.41" ry="21.43"/>
<text text-anchor="middle" x="236.74" y="-174.64" font-family="Helvetica,sans-Serif" font-size="10.00" fill="#ffffff">classic_ml.</text>
<text text-anchor="middle" x="236.74" y="-163.64" font-family="Helvetica,sans-Serif" font-size="10.00" fill="#ffffff">ngrams</text>
</g>
<!-- classic_ml_config&#45;&gt;classic_ml_ngrams -->
<g id="edge16" class="edge">
<title>classic_ml_config&#45;&gt;classic_ml_ngrams</title><style>.edge>path:hover{stroke-width:8}</style>
<path fill="none" stroke="black" d="M327.48,-231.91C311.04,-221.17 289.65,-207.2 271.77,-195.52"/>
<polygon fill="#d31717" stroke="black" points="273.6,-192.54 263.31,-190 269.77,-198.4 273.6,-192.54"/>
</g>
<!-- classic_ml_words -->
<g id="node14" class="node">
<title>classic_ml_words</title><style>.edge>path:hover{stroke-width:8}</style>
<ellipse fill="#a83838" stroke="black" cx="118.74" cy="-171.64" rx="50.41" ry="21.43"/>
<text text-anchor="middle" x="118.74" y="-174.64" font-family="Helvetica,sans-Serif" font-size="10.00" fill="#ffffff">classic_ml.</text>
<text text-anchor="middle" x="118.74" y="-163.64" font-family="Helvetica,sans-Serif" font-size="10.00" fill="#ffffff">words</text>
</g>
<!-- classic_ml_config&#45;&gt;classic_ml_words -->
<g id="edge17" class="edge">
<title>classic_ml_config&#45;&gt;classic_ml_words</title><style>.edge>path:hover{stroke-width:8}</style>
<path fill="none" stroke="black" d="M314.51,-236.8C278.8,-225.56 224.63,-208.37 177.74,-192.85 173.97,-191.61 170.07,-190.3 166.16,-188.98"/>
<polygon fill="#d31717" stroke="black" points="167.06,-185.59 156.47,-185.7 164.81,-192.22 167.06,-185.59"/>
</g>
<!-- classic_ml_facade&#45;&gt;classic_ml -->
<g id="edge18" class="edge">
<title>classic_ml_facade&#45;&gt;classic_ml</title><style>.edge>path:hover{stroke-width:8}</style>
<path fill="none" stroke="black" d="M275.74,-71.82C275.74,-63.97 275.74,-54.86 275.74,-46.45"/>
<polygon fill="#a83838" stroke="black" points="279.24,-46.31 275.74,-36.31 272.24,-46.31 279.24,-46.31"/>
</g>
<!-- classic_ml_ngrams&#45;&gt;classic_ml_facade -->
<g id="edge19" class="edge">
<title>classic_ml_ngrams&#45;&gt;classic_ml_facade</title><style>.edge>path:hover{stroke-width:8}</style>
<path fill="none" stroke="black" d="M246.98,-150.56C251.24,-142.22 256.26,-132.39 260.9,-123.28"/>
<polygon fill="#a13535" stroke="black" points="264.13,-124.66 265.56,-114.16 257.9,-121.48 264.13,-124.66"/>
</g>
<!-- classic_ml_plotting -->
<g id="node12" class="node">
<title>classic_ml_plotting</title><style>.edge>path:hover{stroke-width:8}</style>
<ellipse fill="#c82323" stroke="black" cx="79.74" cy="-250.07" rx="50.41" ry="21.43"/>
<text text-anchor="middle" x="79.74" y="-253.07" font-family="Helvetica,sans-Serif" font-size="10.00" fill="#ffffff">classic_ml.</text>
<text text-anchor="middle" x="79.74" y="-242.07" font-family="Helvetica,sans-Serif" font-size="10.00" fill="#ffffff">plotting</text>
</g>
<!-- classic_ml_plotting&#45;&gt;classic_ml_classifier -->
<g id="edge20" class="edge">
<title>classic_ml_plotting&#45;&gt;classic_ml_classifier</title><style>.edge>path:hover{stroke-width:8}</style>
<path fill="none" stroke="black" d="M116.99,-235.6C124.16,-233.2 131.65,-230.84 138.74,-228.85 175.65,-218.48 275.34,-197.14 338.29,-183.94"/>
<polygon fill="#c82323" stroke="black" points="339.37,-187.29 348.44,-181.82 337.94,-180.44 339.37,-187.29"/>
</g>
<!-- classic_ml_plotting&#45;&gt;classic_ml_ngrams -->
<g id="edge21" class="edge">
<title>classic_ml_plotting&#45;&gt;classic_ml_ngrams</title><style>.edge>path:hover{stroke-width:8}</style>
<path fill="none" stroke="black" d="M111.51,-233.6C135.77,-221.79 169.39,-205.42 195.69,-192.62"/>
<polygon fill="#c82323" stroke="black" points="197.55,-195.61 205.01,-188.08 194.49,-189.31 197.55,-195.61"/>
</g>
<!-- classic_ml_plotting&#45;&gt;classic_ml_words -->
<g id="edge22" class="edge">
<title>classic_ml_plotting&#45;&gt;classic_ml_words</title><style>.edge>path:hover{stroke-width:8}</style>
<path fill="none" stroke="black" d="M89.98,-228.99C94.24,-220.65 99.26,-210.81 103.9,-201.71"/>
<polygon fill="#c82323" stroke="black" points="107.13,-203.08 108.56,-192.59 100.9,-199.9 107.13,-203.08"/>
</g>
<!-- classic_ml_text_stats -->
<g id="node13" class="node">
<title>classic_ml_text_stats</title><style>.edge>path:hover{stroke-width:8}</style>
<ellipse fill="#cc3333" stroke="black" cx="197.74" cy="-250.07" rx="50.41" ry="21.43"/>
<text text-anchor="middle" x="197.74" y="-253.07" font-family="Helvetica,sans-Serif" font-size="10.00" fill="#ffffff">classic_ml.</text>
<text text-anchor="middle" x="197.74" y="-242.07" font-family="Helvetica,sans-Serif" font-size="10.00" fill="#ffffff">text_stats</text>
</g>
<!-- classic_ml_text_stats&#45;&gt;classic_ml_ngrams -->
<g id="edge23" class="edge">
<title>classic_ml_text_stats&#45;&gt;classic_ml_ngrams</title><style>.edge>path:hover{stroke-width:8}</style>
<path fill="none" stroke="black" d="M207.98,-228.99C212.24,-220.65 217.26,-210.81 221.9,-201.71"/>
<polygon fill="#cc3333" stroke="black" points="225.13,-203.08 226.56,-192.59 218.9,-199.9 225.13,-203.08"/>
</g>
<!-- classic_ml_text_stats&#45;&gt;classic_ml_words -->
<g id="edge24" class="edge">
<title>classic_ml_text_stats&#45;&gt;classic_ml_words</title><style>.edge>path:hover{stroke-width:8}</style>
<path fill="none" stroke="black" d="M178.21,-230.17C168.26,-220.55 156.02,-208.7 145.23,-198.27"/>
<polygon fill="#cc3333" stroke="black" points="147.66,-195.75 138.04,-191.31 142.79,-200.78 147.66,-195.75"/>
</g>
<!-- classic_ml_words&#45;&gt;classic_ml_facade -->
<g id="edge25" class="edge">
<title>classic_ml_words&#45;&gt;classic_ml_facade</title><style>.edge>path:hover{stroke-width:8}</style>
<path fill="none" stroke="black" d="M150.51,-155.17C174.77,-143.36 208.39,-127 234.69,-114.2"/>
<polygon fill="#a83838" stroke="black" points="236.55,-117.18 244.01,-109.66 233.49,-110.89 236.55,-117.18"/>
</g>
<!-- matplotlib -->
<g id="node15" class="node">
<title>matplotlib</title><style>.edge>path:hover{stroke-width:8}</style>
<polygon fill="#c4c431" stroke="black" points="153.24,-609.67 150.24,-613.67 129.24,-613.67 126.24,-609.67 86.24,-609.67 86.24,-573.67 153.24,-573.67 153.24,-609.67"/>
<text text-anchor="middle" x="119.74" y="-589.17" font-family="Helvetica,sans-Serif" font-size="10.00" fill="#000000">matplotlib</text>
</g>
<!-- matplotlib&#45;&gt;classic_ml_plotting -->
<g id="edge26" class="edge">
<title>matplotlib&#45;&gt;classic_ml_plotting</title><style>.edge>path:hover{stroke-width:8}</style>
<path fill="none" stroke="black" d="M140.72,-573.66C156.81,-558.82 177.05,-535.64 181.74,-509.68"/>
<path fill="none" stroke="black" d="M181.74,-507.68C197.62,-419.74 136.3,-323.82 101.78,-278.16"/>
<polygon fill="#c4c431" stroke="black" points="104.55,-276.01 95.67,-270.23 99,-280.29 104.55,-276.01"/>
</g>
<!-- nltk -->
<g id="node16" class="node">
<title>nltk</title><style>.edge>path:hover{stroke-width:8}</style>
<polygon fill="#24d024" stroke="black" points="530.74,-753.67 527.74,-757.67 506.74,-757.67 503.74,-753.67 476.74,-753.67 476.74,-717.67 530.74,-717.67 530.74,-753.67"/>
<text text-anchor="middle" x="503.74" y="-733.17" font-family="Helvetica,sans-Serif" font-size="10.00" fill="#000000">nltk</text>
</g>
<!-- nltk&#45;&gt;classic_ml_classifiers_base -->
<g id="edge27" class="edge">
<title>nltk&#45;&gt;classic_ml_classifiers_base</title><style>.edge>path:hover{stroke-width:8}</style>
<path fill="none" stroke="black" d="M503.74,-662.67C499.73,-631.82 481.75,-614.68 503.74,-592.67"/>
</g>
<!-- nltk&#45;&gt;classic_ml_classifiers_naive_bayes -->
<g id="edge28" class="edge">
<title>nltk&#45;&gt;classic_ml_classifiers_naive_bayes</title><style>.edge>path:hover{stroke-width:8}</style>
<path fill="none" stroke="black" d="M465.74,-590.67C437.95,-534.23 500.9,-476.28 547.18,-443.26"/>
<polygon fill="#24d024" stroke="black" points="549.4,-445.98 555.6,-437.39 545.4,-440.24 549.4,-445.98"/>
</g>
<!-- nltk&#45;&gt;classic_ml_ngrams -->
<g id="edge29" class="edge">
<title>nltk&#45;&gt;classic_ml_ngrams</title><style>.edge>path:hover{stroke-width:8}</style>
<path fill="none" stroke="black" d="M504.96,-717.62C505.68,-703.4 506.07,-682.63 503.74,-664.67"/>
<path fill="none" stroke="black" d="M503.74,-662.67C499.18,-627.57 480.05,-625.05 465.74,-592.67"/>
<path fill="none" stroke="black" d="M465.74,-590.67C434.29,-519.53 409.11,-511.34 370.74,-443.69 323.64,-360.66 308.43,-340.75 275.74,-251.07"/>
</g>
<!-- numpy -->
<g id="node17" class="node">
<title>numpy</title><style>.edge>path:hover{stroke-width:8}</style>
<polygon fill="#19e6e6" stroke="black" points="530.74,-825.67 527.74,-829.67 506.74,-829.67 503.74,-825.67 476.74,-825.67 476.74,-789.67 530.74,-789.67 530.74,-825.67"/>
<text text-anchor="middle" x="503.74" y="-805.17" font-family="Helvetica,sans-Serif" font-size="10.00" fill="#000000">numpy</text>
</g>
<!-- numpy&#45;&gt;classic_ml_plotting -->
<g id="edge30" class="edge">
<title>numpy&#45;&gt;classic_ml_plotting</title><style>.edge>path:hover{stroke-width:8}</style>
<path fill="none" stroke="black" d="M181.74,-662.67C150.48,-602.28 172.5,-577.05 181.74,-509.68"/>
</g>
<!-- numpy&#45;&gt;matplotlib -->
<g id="edge31" class="edge">
<title>numpy&#45;&gt;matplotlib</title><style>.edge>path:hover{stroke-width:8}</style>
<path fill="none" stroke="black" d="M476.73,-806.69C403.93,-805.09 207.39,-789.14 181.74,-664.67"/>
<path fill="none" stroke="black" d="M181.74,-662.67C172.96,-645.72 159.17,-629.57 146.81,-617.06"/>
<polygon fill="#19e6e6" stroke="black" points="148.96,-614.27 139.37,-609.77 144.06,-619.27 148.96,-614.27"/>
</g>
<!-- numpy&#45;&gt;nltk -->
<g id="edge32" class="edge">
<title>numpy&#45;&gt;nltk</title><style>.edge>path:hover{stroke-width:8}</style>
<path fill="none" stroke="black" d="M503.74,-789.37C503.74,-781.65 503.74,-772.38 503.74,-763.78"/>
<polygon fill="#19e6e6" stroke="black" points="507.24,-763.78 503.74,-753.78 500.24,-763.78 507.24,-763.78"/>
</g>
<!-- sklearn -->
<g id="node18" class="node">
<title>sklearn</title><style>.edge>path:hover{stroke-width:8}</style>
<polygon fill="#0606ef" stroke="black" points="916.74,-681.67 913.74,-685.67 892.74,-685.67 889.74,-681.67 862.74,-681.67 862.74,-645.67 916.74,-645.67 916.74,-681.67"/>
<text text-anchor="middle" x="889.74" y="-661.17" font-family="Helvetica,sans-Serif" font-size="10.00" fill="#ffffff">sklearn</text>
</g>
<!-- numpy&#45;&gt;sklearn -->
<g id="edge33" class="edge">
<title>numpy&#45;&gt;sklearn</title><style>.edge>path:hover{stroke-width:8}</style>
<path fill="none" stroke="black" d="M530.88,-796.69C598.71,-771.73 775.67,-706.63 852.85,-678.24"/>
<polygon fill="#19e6e6" stroke="black" points="854.45,-681.38 862.62,-674.65 852.03,-674.81 854.45,-681.38"/>
</g>
<!-- sklearn&#45;&gt;classic_ml_classifier -->
<g id="edge34" class="edge">
<title>sklearn&#45;&gt;classic_ml_classifier</title><style>.edge>path:hover{stroke-width:8}</style>
<path fill="none" stroke="black" d="M1000.74,-507.68C987.92,-468.86 1003.68,-456.47 1000.74,-415.7"/>
</g>
<!-- sklearn&#45;&gt;classic_ml_classifiers_logistic_regression -->
<g id="edge35" class="edge">
<title>sklearn&#45;&gt;classic_ml_classifiers_logistic_regression</title><style>.edge>path:hover{stroke-width:8}</style>
<path fill="none" stroke="black" d="M1000.74,-507.68C988.6,-482.46 966.09,-461.2 945.1,-445.49"/>
<polygon fill="#0606ef" stroke="black" points="947.01,-442.55 936.85,-439.54 942.91,-448.23 947.01,-442.55"/>
</g>
<!-- sklearn&#45;&gt;classic_ml_classifiers_svm -->
<g id="edge36" class="edge">
<title>sklearn&#45;&gt;classic_ml_classifiers_svm</title><style>.edge>path:hover{stroke-width:8}</style>
<path fill="none" stroke="black" d="M917.02,-646.3C957.74,-619.62 1026.99,-564.24 1000.74,-509.68"/>
<path fill="none" stroke="black" d="M1000.74,-507.68C972.94,-423.47 894.05,-476.71 811.74,-443.69 807.54,-442.01 803.22,-440.18 798.91,-438.29"/>
<polygon fill="#0606ef" stroke="black" points="800.11,-434.99 789.55,-434.1 797.25,-441.38 800.11,-434.99"/>
</g>
<!-- utils -->
<g id="node19" class="node">
<title>utils</title><style>.edge>path:hover{stroke-width:8}</style>
<polygon fill="#f316f3" stroke="black" points="406.74,-753.67 403.74,-757.67 382.74,-757.67 379.74,-753.67 352.74,-753.67 352.74,-717.67 406.74,-717.67 406.74,-753.67"/>
<text text-anchor="middle" x="379.74" y="-733.17" font-family="Helvetica,sans-Serif" font-size="10.00" fill="#ffffff">utils</text>
</g>
<!-- utils&#45;&gt;classic_ml_classifier -->
<g id="edge37" class="edge">
<title>utils&#45;&gt;classic_ml_classifier</title><style>.edge>path:hover{stroke-width:8}</style>
<path fill="none" stroke="black" d="M427.74,-590.67C410.44,-542.34 436.06,-525.24 459.74,-479.69 469.21,-461.46 476.88,-460.47 488.74,-443.69 529.82,-385.54 527.92,-362.61 572.74,-307.28 595.53,-279.13 656.52,-277.48 631.74,-251.07"/>
<path fill="none" stroke="black" d="M631.74,-249.07C581.44,-204.32 504.77,-185.75 451.9,-178.05"/>
<polygon fill="#f316f3" stroke="black" points="452.37,-174.58 441.99,-176.7 451.42,-181.52 452.37,-174.58"/>
</g>
<!-- utils&#45;&gt;classic_ml_classifiers_base -->
<g id="edge38" class="edge">
<title>utils&#45;&gt;classic_ml_classifiers_base</title><style>.edge>path:hover{stroke-width:8}</style>
<path fill="none" stroke="black" d="M446.74,-662.67C466.1,-627.53 475.38,-621.06 503.74,-592.67"/>
<path fill="none" stroke="black" d="M503.74,-590.67C544.47,-549.89 608.04,-529.19 654.38,-518.98"/>
<polygon fill="#f316f3" stroke="black" points="655.22,-522.38 664.29,-516.9 653.78,-515.53 655.22,-522.38"/>
</g>
<!-- utils&#45;&gt;classic_ml_config -->
<g id="edge39" class="edge">
<title>utils&#45;&gt;classic_ml_config</title><style>.edge>path:hover{stroke-width:8}</style>
<path fill="none" stroke="black" d="M351.74,-507.68C309.48,-440.7 367.45,-407.11 351.74,-329.49"/>
<path fill="none" stroke="black" d="M351.74,-327.49C348.97,-312.51 349.09,-295.61 350.06,-281.51"/>
<polygon fill="#f316f3" stroke="black" points="353.56,-281.62 350.93,-271.36 346.59,-281.02 353.56,-281.62"/>
</g>
<!-- utils&#45;&gt;classic_ml_ngrams -->
<g id="edge40" class="edge">
<title>utils&#45;&gt;classic_ml_ngrams</title><style>.edge>path:hover{stroke-width:8}</style>
<path fill="none" stroke="black" d="M275.74,-327.49C264.97,-295.28 287.37,-282.98 275.74,-251.07"/>
<path fill="none" stroke="black" d="M275.74,-249.07C269.81,-232.81 261.23,-215.56 253.62,-201.58"/>
<polygon fill="#f316f3" stroke="black" points="256.48,-199.51 248.56,-192.47 250.36,-202.91 256.48,-199.51"/>
</g>
<!-- utils&#45;&gt;classic_ml_text_stats -->
<g id="edge41" class="edge">
<title>utils&#45;&gt;classic_ml_text_stats</title><style>.edge>path:hover{stroke-width:8}</style>
<path fill="none" stroke="black" d="M401.22,-717.56C416.13,-704.57 435.29,-685.44 446.74,-664.67"/>
<path fill="none" stroke="black" d="M446.74,-662.67C462.3,-634.44 438.6,-623.02 427.74,-592.67"/>
<path fill="none" stroke="black" d="M427.74,-590.67C416.62,-559.6 398.04,-561.99 375.74,-537.67 364.66,-525.6 360.7,-523.4 351.74,-509.68"/>
<path fill="none" stroke="black" d="M351.74,-507.68C331.69,-477 315.5,-476.77 299.74,-443.69 277.42,-396.87 287.6,-379.98 275.74,-329.49"/>
<path fill="none" stroke="black" d="M275.74,-327.49C268.4,-305.55 250.34,-287.16 233.44,-273.92"/>
<polygon fill="#f316f3" stroke="black" points="235.4,-271.02 225.29,-267.84 231.21,-276.63 235.4,-271.02"/>
</g>
<!-- utils&#45;&gt;classic_ml_words -->
<g id="edge42" class="edge">
<title>utils&#45;&gt;classic_ml_words</title><style>.edge>path:hover{stroke-width:8}</style>
<path fill="none" stroke="black" d="M352.55,-730.52C265.88,-716.51 1.74,-667.68 1.74,-592.67 1.74,-592.67 1.74,-592.67 1.74,-327.49 1.74,-282.85 -5.21,-265.19 20.74,-228.85 33.12,-211.51 52.64,-198.76 71.02,-189.84"/>
<polygon fill="#f316f3" stroke="black" points="72.56,-192.98 80.19,-185.63 69.64,-186.62 72.56,-192.98"/>
</g>
</g>
</svg>
